# xmcd
#
# Track frame offsets: 
#        150
#        25705
#        50882
#        75690
#        110007
#        139592
#        159952
#        192880
#        214110
#        236645
#
# Disc length: 3480 seconds
#
# Revision: 1
# Processed by: cddbd v1.5.2PL0 Copyright (c) Steve Scherf et al.
# Submitted via: ExactAudioCopy v1.0b4
#
DISCID=830d960a
DTITLE=Be Sharp - Play This
DYEAR=1995
DGENRE=Rock
TTITLE0=Dreamworld
TTITLE1=The Trap
TTITLE2=What You Do To Me
TTITLE3=Five Miles Above
TTITLE4=Welcome To The Real World
TTITLE5=Face To Face
TTITLE6=Haunted
TTITLE7=Hero
TTITLE8=Running Out Of Time
TTITLE9=Don't Turn Me Round
EXTD=
EXTT0=
EXTT1=
EXTT2=
EXTT3=
EXTT4=
EXTT5=
EXTT6=
EXTT7=
EXTT8=
EXTT9=
PLAYORDER=
